<svg width="26" height="20" viewBox="0 0 26 20" fill="none" xmlns="http://www.w3.org/2000/svg">
<path d="M13.2604 8.30505C15.4619 8.30505 17.2466 6.4459 17.2466 4.15253C17.2466 1.85915 15.4619 0 13.2604 0C11.0589 0 9.27417 1.85915 9.27417 4.15253C9.27417 6.4459 11.0589 8.30505 13.2604 8.30505Z" fill="white"/>
<path d="M4.06758 19.9999C6.31404 19.9999 8.13515 18.1028 8.13515 15.7627C8.13515 13.4225 6.31404 11.5254 4.06758 11.5254C1.82112 11.5254 0 13.4225 0 15.7627C0 18.1028 1.82112 19.9999 4.06758 19.9999Z" fill="white"/>
<path d="M21.9324 19.8476C19.686 19.8476 17.8648 17.9505 17.8648 15.6103C17.8648 13.2701 19.686 11.373 21.9324 11.373C24.1789 11.373 26 13.2701 26 15.6103C26 17.9505 24.1789 19.8476 21.9324 19.8476Z" fill="white"/>
<path d="M3.34579 13.2109L4.72583 14.6519L13.2669 5.7341L11.8868 4.29318L3.34579 13.2109Z" fill="white"/>
<path d="M22.8234 13.0532L21.4434 14.4941L12.9023 5.57638L14.2824 4.13547L22.8234 13.0532Z" fill="white"/>
</svg>
